<mxfile host="app.diagrams.net" agent="Mozilla/5.0 (Windows NT 10.0; Win64; x64) AppleWebKit/537.36 (KHTML, like Gecko) Chrome/135.0.0.0 Safari/537.36 Edg/135.0.0.0" version="26.2.13" pages="3">
  <diagram name="Page-1" id="NhZzBu7ELQHP8mxgbrDF">
    <mxGraphModel dx="1655" dy="469" grid="1" gridSize="10" guides="1" tooltips="1" connect="1" arrows="1" fold="1" page="1" pageScale="1" pageWidth="850" pageHeight="1100" math="0" shadow="0">
      <root>
        <mxCell id="0" />
        <mxCell id="1" parent="0" />
        <mxCell id="RBFNxyTUU0QisXow_zgB-1" value="Funcionario" style="shape=umlActor;verticalLabelPosition=bottom;verticalAlign=top;html=1;outlineConnect=0;strokeWidth=2;" parent="1" vertex="1">
          <mxGeometry x="3" y="380" width="30" height="60" as="geometry" />
        </mxCell>
        <mxCell id="RBFNxyTUU0QisXow_zgB-2" value="FelixBus Website" style="swimlane;whiteSpace=wrap;html=1;" parent="1" vertex="1">
          <mxGeometry x="40" y="40" width="480" height="720" as="geometry" />
        </mxCell>
        <mxCell id="RBFNxyTUU0QisXow_zgB-3" value="Autenticar-se" style="ellipse;whiteSpace=wrap;html=1;" parent="RBFNxyTUU0QisXow_zgB-2" vertex="1">
          <mxGeometry x="260" y="260" width="70" height="45" as="geometry" />
        </mxCell>
        <mxCell id="RBFNxyTUU0QisXow_zgB-4" value="Encerrar sessao" style="ellipse;whiteSpace=wrap;html=1;" parent="RBFNxyTUU0QisXow_zgB-2" vertex="1">
          <mxGeometry x="398" y="260" width="70" height="45" as="geometry" />
        </mxCell>
        <mxCell id="NeZ7_Q2BanBqK6unCYoK-1" value="Consultar e editar dados pessoais" style="ellipse;whiteSpace=wrap;html=1;" parent="RBFNxyTUU0QisXow_zgB-2" vertex="1">
          <mxGeometry x="21" y="105" width="80" height="60" as="geometry" />
        </mxCell>
        <mxCell id="oBA19NHuGn7KEeYsnwlE-1" value="Consultar informacoes de viagem" style="ellipse;whiteSpace=wrap;html=1;" parent="RBFNxyTUU0QisXow_zgB-2" vertex="1">
          <mxGeometry x="21" y="260" width="80" height="60" as="geometry" />
        </mxCell>
        <mxCell id="4wETrgSGMqWWY_0BuTBV-1" value="Consultar rotas" style="ellipse;whiteSpace=wrap;html=1;" vertex="1" parent="RBFNxyTUU0QisXow_zgB-2">
          <mxGeometry x="161" y="260" width="70" height="50" as="geometry" />
        </mxCell>
        <mxCell id="4wETrgSGMqWWY_0BuTBV-2" value="Consultar horarios" style="ellipse;whiteSpace=wrap;html=1;" vertex="1" parent="RBFNxyTUU0QisXow_zgB-2">
          <mxGeometry x="161" y="190" width="70" height="50" as="geometry" />
        </mxCell>
        <mxCell id="4wETrgSGMqWWY_0BuTBV-3" value="Consultar precos" style="ellipse;whiteSpace=wrap;html=1;" vertex="1" parent="RBFNxyTUU0QisXow_zgB-2">
          <mxGeometry x="161" y="335" width="70" height="50" as="geometry" />
        </mxCell>
        <mxCell id="4wETrgSGMqWWY_0BuTBV-4" value="" style="endArrow=classic;html=1;rounded=0;entryX=0;entryY=0.5;entryDx=0;entryDy=0;exitX=1;exitY=0;exitDx=0;exitDy=0;dashed=1;" edge="1" parent="RBFNxyTUU0QisXow_zgB-2" target="4wETrgSGMqWWY_0BuTBV-2" source="oBA19NHuGn7KEeYsnwlE-1">
          <mxGeometry width="50" height="50" relative="1" as="geometry">
            <mxPoint x="131" y="340" as="sourcePoint" />
            <mxPoint x="121" y="300" as="targetPoint" />
          </mxGeometry>
        </mxCell>
        <mxCell id="4wETrgSGMqWWY_0BuTBV-5" value="&lt;font style=&quot;font-size: 8px;&quot;&gt;&amp;lt;&amp;lt;extend&amp;gt;&amp;gt;&lt;/font&gt;" style="edgeLabel;html=1;align=center;verticalAlign=middle;resizable=0;points=[];" vertex="1" connectable="0" parent="4wETrgSGMqWWY_0BuTBV-4">
          <mxGeometry x="-0.1975" y="2" relative="1" as="geometry">
            <mxPoint x="-19" as="offset" />
          </mxGeometry>
        </mxCell>
        <mxCell id="4wETrgSGMqWWY_0BuTBV-6" value="" style="endArrow=classic;html=1;rounded=0;entryX=0;entryY=0.5;entryDx=0;entryDy=0;exitX=1;exitY=0.5;exitDx=0;exitDy=0;dashed=1;" edge="1" parent="RBFNxyTUU0QisXow_zgB-2" target="4wETrgSGMqWWY_0BuTBV-1" source="oBA19NHuGn7KEeYsnwlE-1">
          <mxGeometry width="50" height="50" relative="1" as="geometry">
            <mxPoint x="159" y="349" as="sourcePoint" />
            <mxPoint x="191" y="400" as="targetPoint" />
          </mxGeometry>
        </mxCell>
        <mxCell id="4wETrgSGMqWWY_0BuTBV-7" value="&lt;font style=&quot;font-size: 8px;&quot;&gt;&amp;lt;&amp;lt;extend&amp;gt;&amp;gt;&lt;/font&gt;" style="edgeLabel;html=1;align=center;verticalAlign=middle;resizable=0;points=[];" vertex="1" connectable="0" parent="4wETrgSGMqWWY_0BuTBV-6">
          <mxGeometry x="-0.0704" y="1" relative="1" as="geometry">
            <mxPoint as="offset" />
          </mxGeometry>
        </mxCell>
        <mxCell id="4wETrgSGMqWWY_0BuTBV-8" value="" style="endArrow=classic;html=1;rounded=0;entryX=0;entryY=0.5;entryDx=0;entryDy=0;dashed=1;exitX=1;exitY=1;exitDx=0;exitDy=0;" edge="1" parent="RBFNxyTUU0QisXow_zgB-2" target="4wETrgSGMqWWY_0BuTBV-3" source="oBA19NHuGn7KEeYsnwlE-1">
          <mxGeometry width="50" height="50" relative="1" as="geometry">
            <mxPoint x="171" y="370" as="sourcePoint" />
            <mxPoint x="181" y="400" as="targetPoint" />
          </mxGeometry>
        </mxCell>
        <mxCell id="4wETrgSGMqWWY_0BuTBV-9" value="&lt;font style=&quot;font-size: 8px;&quot;&gt;&amp;lt;&amp;lt;extend&amp;gt;&amp;gt;&lt;/font&gt;" style="edgeLabel;html=1;align=center;verticalAlign=middle;resizable=0;points=[];" vertex="1" connectable="0" parent="4wETrgSGMqWWY_0BuTBV-8">
          <mxGeometry x="-0.1731" y="2" relative="1" as="geometry">
            <mxPoint x="1" as="offset" />
          </mxGeometry>
        </mxCell>
        <mxCell id="138w1NaWASEIeyPZxTQB-1" value="Gerir bilhetes" style="ellipse;whiteSpace=wrap;html=1;" vertex="1" parent="RBFNxyTUU0QisXow_zgB-2">
          <mxGeometry x="21" y="431" width="80" height="60" as="geometry" />
        </mxCell>
        <mxCell id="138w1NaWASEIeyPZxTQB-2" value="Comprar bilhete" style="ellipse;whiteSpace=wrap;html=1;" vertex="1" parent="RBFNxyTUU0QisXow_zgB-2">
          <mxGeometry x="166" y="481" width="60" height="50" as="geometry" />
        </mxCell>
        <mxCell id="138w1NaWASEIeyPZxTQB-3" value="" style="endArrow=classic;html=1;rounded=0;dashed=1;exitX=1;exitY=0.5;exitDx=0;exitDy=0;entryX=0;entryY=0.5;entryDx=0;entryDy=0;fontStyle=1" edge="1" parent="RBFNxyTUU0QisXow_zgB-2" source="138w1NaWASEIeyPZxTQB-1" target="138w1NaWASEIeyPZxTQB-2">
          <mxGeometry width="50" height="50" relative="1" as="geometry">
            <mxPoint x="101" y="561" as="sourcePoint" />
            <mxPoint x="213" y="362" as="targetPoint" />
          </mxGeometry>
        </mxCell>
        <mxCell id="138w1NaWASEIeyPZxTQB-4" value="&lt;font style=&quot;font-size: 8px;&quot;&gt;&amp;lt;&amp;lt;include&amp;gt;&amp;gt;&lt;/font&gt;" style="edgeLabel;html=1;align=center;verticalAlign=middle;resizable=0;points=[];" vertex="1" connectable="0" parent="138w1NaWASEIeyPZxTQB-3">
          <mxGeometry x="0.0441" y="1" relative="1" as="geometry">
            <mxPoint as="offset" />
          </mxGeometry>
        </mxCell>
        <mxCell id="138w1NaWASEIeyPZxTQB-5" value="Consultar bilhetes comprados" style="ellipse;whiteSpace=wrap;html=1;" vertex="1" parent="RBFNxyTUU0QisXow_zgB-2">
          <mxGeometry x="151" y="411" width="90" height="55" as="geometry" />
        </mxCell>
        <mxCell id="138w1NaWASEIeyPZxTQB-6" value="" style="endArrow=classic;html=1;rounded=0;dashed=1;exitX=1;exitY=0.5;exitDx=0;exitDy=0;entryX=0;entryY=0.5;entryDx=0;entryDy=0;fontStyle=1" edge="1" parent="RBFNxyTUU0QisXow_zgB-2" source="138w1NaWASEIeyPZxTQB-1" target="138w1NaWASEIeyPZxTQB-5">
          <mxGeometry width="50" height="50" relative="1" as="geometry">
            <mxPoint x="101" y="442" as="sourcePoint" />
            <mxPoint x="186" y="527" as="targetPoint" />
          </mxGeometry>
        </mxCell>
        <mxCell id="138w1NaWASEIeyPZxTQB-7" value="&lt;font style=&quot;font-size: 8px;&quot;&gt;&amp;lt;&amp;lt;include&amp;gt;&amp;gt;&lt;/font&gt;" style="edgeLabel;html=1;align=center;verticalAlign=middle;resizable=0;points=[];" vertex="1" connectable="0" parent="138w1NaWASEIeyPZxTQB-6">
          <mxGeometry x="0.0441" y="1" relative="1" as="geometry">
            <mxPoint as="offset" />
          </mxGeometry>
        </mxCell>
        <mxCell id="3toeGC8kUkl0BYj-29N6-1" value="Gerir carteira" style="ellipse;whiteSpace=wrap;html=1;" vertex="1" parent="RBFNxyTUU0QisXow_zgB-2">
          <mxGeometry x="20" y="596" width="80" height="60" as="geometry" />
        </mxCell>
        <mxCell id="3toeGC8kUkl0BYj-29N6-2" value="Levantar saldo" style="ellipse;whiteSpace=wrap;html=1;" vertex="1" parent="RBFNxyTUU0QisXow_zgB-2">
          <mxGeometry x="170" y="551" width="60" height="45" as="geometry" />
        </mxCell>
        <mxCell id="3toeGC8kUkl0BYj-29N6-3" value="Adiconar saldo" style="ellipse;whiteSpace=wrap;html=1;" vertex="1" parent="RBFNxyTUU0QisXow_zgB-2">
          <mxGeometry x="170" y="606" width="60" height="40" as="geometry" />
        </mxCell>
        <mxCell id="3toeGC8kUkl0BYj-29N6-4" value="" style="endArrow=classic;html=1;rounded=0;dashed=1;exitX=1;exitY=0;exitDx=0;exitDy=0;entryX=0;entryY=0.5;entryDx=0;entryDy=0;fontStyle=1" edge="1" parent="RBFNxyTUU0QisXow_zgB-2" source="3toeGC8kUkl0BYj-29N6-1" target="3toeGC8kUkl0BYj-29N6-2">
          <mxGeometry width="50" height="50" relative="1" as="geometry">
            <mxPoint x="115" y="636" as="sourcePoint" />
            <mxPoint x="227" y="437" as="targetPoint" />
          </mxGeometry>
        </mxCell>
        <mxCell id="3toeGC8kUkl0BYj-29N6-5" value="&lt;font style=&quot;font-size: 8px;&quot;&gt;&amp;lt;&amp;lt;include&amp;gt;&amp;gt;&lt;/font&gt;" style="edgeLabel;html=1;align=center;verticalAlign=middle;resizable=0;points=[];" vertex="1" connectable="0" parent="3toeGC8kUkl0BYj-29N6-4">
          <mxGeometry x="0.0441" y="1" relative="1" as="geometry">
            <mxPoint as="offset" />
          </mxGeometry>
        </mxCell>
        <mxCell id="3toeGC8kUkl0BYj-29N6-6" value="" style="endArrow=classic;html=1;rounded=0;dashed=1;entryX=0;entryY=0.5;entryDx=0;entryDy=0;fontStyle=1;" edge="1" parent="RBFNxyTUU0QisXow_zgB-2" target="3toeGC8kUkl0BYj-29N6-3">
          <mxGeometry width="50" height="50" relative="1" as="geometry">
            <mxPoint x="105" y="626" as="sourcePoint" />
            <mxPoint x="116" y="693" as="targetPoint" />
          </mxGeometry>
        </mxCell>
        <mxCell id="3toeGC8kUkl0BYj-29N6-7" value="&lt;font style=&quot;font-size: 8px;&quot;&gt;&amp;lt;&amp;lt;include&amp;gt;&amp;gt;&lt;/font&gt;" style="edgeLabel;html=1;align=center;verticalAlign=middle;resizable=0;points=[];" vertex="1" connectable="0" parent="3toeGC8kUkl0BYj-29N6-6">
          <mxGeometry x="0.0441" y="1" relative="1" as="geometry">
            <mxPoint x="-9" y="1" as="offset" />
          </mxGeometry>
        </mxCell>
        <mxCell id="3toeGC8kUkl0BYj-29N6-8" value="Consultar saldo" style="ellipse;whiteSpace=wrap;html=1;" vertex="1" parent="RBFNxyTUU0QisXow_zgB-2">
          <mxGeometry x="170" y="656" width="60" height="40" as="geometry" />
        </mxCell>
        <mxCell id="3toeGC8kUkl0BYj-29N6-9" value="" style="endArrow=classic;html=1;rounded=0;dashed=1;exitX=1;exitY=1;exitDx=0;exitDy=0;entryX=0;entryY=0.5;entryDx=0;entryDy=0;fontStyle=1" edge="1" parent="RBFNxyTUU0QisXow_zgB-2" source="3toeGC8kUkl0BYj-29N6-1" target="3toeGC8kUkl0BYj-29N6-8">
          <mxGeometry width="50" height="50" relative="1" as="geometry">
            <mxPoint x="39" y="666" as="sourcePoint" />
            <mxPoint x="64" y="716" as="targetPoint" />
          </mxGeometry>
        </mxCell>
        <mxCell id="3toeGC8kUkl0BYj-29N6-10" value="&lt;font style=&quot;font-size: 8px;&quot;&gt;&amp;lt;&amp;lt;include&amp;gt;&amp;gt;&lt;/font&gt;" style="edgeLabel;html=1;align=center;verticalAlign=middle;resizable=0;points=[];" vertex="1" connectable="0" parent="3toeGC8kUkl0BYj-29N6-9">
          <mxGeometry x="0.0441" y="1" relative="1" as="geometry">
            <mxPoint as="offset" />
          </mxGeometry>
        </mxCell>
        <mxCell id="3toeGC8kUkl0BYj-29N6-12" value="" style="endArrow=classic;html=1;rounded=0;entryX=0;entryY=0.5;entryDx=0;entryDy=0;exitX=1;exitY=0.5;exitDx=0;exitDy=0;dashed=1;" edge="1" parent="RBFNxyTUU0QisXow_zgB-2" source="RBFNxyTUU0QisXow_zgB-3" target="RBFNxyTUU0QisXow_zgB-4">
          <mxGeometry width="50" height="50" relative="1" as="geometry">
            <mxPoint x="352" y="380" as="sourcePoint" />
            <mxPoint x="402" y="330" as="targetPoint" />
          </mxGeometry>
        </mxCell>
        <mxCell id="3toeGC8kUkl0BYj-29N6-13" value="&amp;lt;&amp;lt;extend&amp;gt;&amp;gt;" style="edgeLabel;html=1;align=center;verticalAlign=middle;resizable=0;points=[];" vertex="1" connectable="0" parent="3toeGC8kUkl0BYj-29N6-12">
          <mxGeometry x="-0.1726" y="1" relative="1" as="geometry">
            <mxPoint y="-21" as="offset" />
          </mxGeometry>
        </mxCell>
        <mxCell id="3toeGC8kUkl0BYj-29N6-17" value="" style="endArrow=classic;html=1;rounded=0;entryX=0;entryY=0.5;entryDx=0;entryDy=0;" edge="1" parent="RBFNxyTUU0QisXow_zgB-2" target="3toeGC8kUkl0BYj-29N6-1">
          <mxGeometry width="50" height="50" relative="1" as="geometry">
            <mxPoint x="-10" y="380" as="sourcePoint" />
            <mxPoint x="31" y="531" as="targetPoint" />
          </mxGeometry>
        </mxCell>
        <mxCell id="3toeGC8kUkl0BYj-29N6-18" value="" style="endArrow=classic;html=1;rounded=0;dashed=1;exitX=1;exitY=0.5;exitDx=0;exitDy=0;entryX=0.5;entryY=0;entryDx=0;entryDy=0;fontStyle=1" edge="1" parent="RBFNxyTUU0QisXow_zgB-2" source="NeZ7_Q2BanBqK6unCYoK-1" target="RBFNxyTUU0QisXow_zgB-3">
          <mxGeometry width="50" height="50" relative="1" as="geometry">
            <mxPoint x="250" y="226" as="sourcePoint" />
            <mxPoint x="300" y="204" as="targetPoint" />
            <Array as="points">
              <mxPoint x="230" y="150" />
            </Array>
          </mxGeometry>
        </mxCell>
        <mxCell id="3toeGC8kUkl0BYj-29N6-19" value="&lt;font style=&quot;font-size: 8px;&quot;&gt;&amp;lt;&amp;lt;include&amp;gt;&amp;gt;&lt;/font&gt;" style="edgeLabel;html=1;align=center;verticalAlign=middle;resizable=0;points=[];" vertex="1" connectable="0" parent="3toeGC8kUkl0BYj-29N6-18">
          <mxGeometry x="0.0441" y="1" relative="1" as="geometry">
            <mxPoint as="offset" />
          </mxGeometry>
        </mxCell>
        <mxCell id="3toeGC8kUkl0BYj-29N6-20" value="" style="endArrow=classic;html=1;rounded=0;dashed=1;exitX=1;exitY=0.5;exitDx=0;exitDy=0;entryX=0;entryY=0;entryDx=0;entryDy=0;fontStyle=1" edge="1" parent="RBFNxyTUU0QisXow_zgB-2" source="oBA19NHuGn7KEeYsnwlE-1" target="RBFNxyTUU0QisXow_zgB-3">
          <mxGeometry width="50" height="50" relative="1" as="geometry">
            <mxPoint x="231" y="350" as="sourcePoint" />
            <mxPoint x="425" y="475" as="targetPoint" />
            <Array as="points">
              <mxPoint x="190" y="250" />
            </Array>
          </mxGeometry>
        </mxCell>
        <mxCell id="3toeGC8kUkl0BYj-29N6-21" value="&lt;font style=&quot;font-size: 8px;&quot;&gt;&amp;lt;&amp;lt;include&amp;gt;&amp;gt;&lt;/font&gt;" style="edgeLabel;html=1;align=center;verticalAlign=middle;resizable=0;points=[];" vertex="1" connectable="0" parent="3toeGC8kUkl0BYj-29N6-20">
          <mxGeometry x="0.0441" y="1" relative="1" as="geometry">
            <mxPoint as="offset" />
          </mxGeometry>
        </mxCell>
        <mxCell id="3toeGC8kUkl0BYj-29N6-22" value="" style="endArrow=classic;html=1;rounded=0;dashed=1;exitX=1;exitY=0;exitDx=0;exitDy=0;entryX=0;entryY=0.5;entryDx=0;entryDy=0;fontStyle=1" edge="1" parent="RBFNxyTUU0QisXow_zgB-2" source="138w1NaWASEIeyPZxTQB-1" target="RBFNxyTUU0QisXow_zgB-3">
          <mxGeometry width="50" height="50" relative="1" as="geometry">
            <mxPoint x="270" y="425" as="sourcePoint" />
            <mxPoint x="439" y="402" as="targetPoint" />
            <Array as="points">
              <mxPoint x="230" y="390" />
            </Array>
          </mxGeometry>
        </mxCell>
        <mxCell id="3toeGC8kUkl0BYj-29N6-23" value="&lt;font style=&quot;font-size: 8px;&quot;&gt;&amp;lt;&amp;lt;include&amp;gt;&amp;gt;&lt;/font&gt;" style="edgeLabel;html=1;align=center;verticalAlign=middle;resizable=0;points=[];" vertex="1" connectable="0" parent="3toeGC8kUkl0BYj-29N6-22">
          <mxGeometry x="0.0441" y="1" relative="1" as="geometry">
            <mxPoint as="offset" />
          </mxGeometry>
        </mxCell>
        <mxCell id="3toeGC8kUkl0BYj-29N6-24" value="" style="endArrow=classic;html=1;rounded=0;dashed=1;exitX=0.5;exitY=0;exitDx=0;exitDy=0;entryX=0.5;entryY=1;entryDx=0;entryDy=0;fontStyle=1" edge="1" parent="RBFNxyTUU0QisXow_zgB-2" source="3toeGC8kUkl0BYj-29N6-1" target="RBFNxyTUU0QisXow_zgB-3">
          <mxGeometry width="50" height="50" relative="1" as="geometry">
            <mxPoint x="166" y="568" as="sourcePoint" />
            <mxPoint x="337" y="411" as="targetPoint" />
            <Array as="points">
              <mxPoint x="240" y="530" />
            </Array>
          </mxGeometry>
        </mxCell>
        <mxCell id="3toeGC8kUkl0BYj-29N6-25" value="&lt;font style=&quot;font-size: 8px;&quot;&gt;&amp;lt;&amp;lt;include&amp;gt;&amp;gt;&lt;/font&gt;" style="edgeLabel;html=1;align=center;verticalAlign=middle;resizable=0;points=[];" vertex="1" connectable="0" parent="3toeGC8kUkl0BYj-29N6-24">
          <mxGeometry x="0.0441" y="1" relative="1" as="geometry">
            <mxPoint as="offset" />
          </mxGeometry>
        </mxCell>
        <mxCell id="3toeGC8kUkl0BYj-29N6-14" value="" style="endArrow=classic;html=1;rounded=0;entryX=0;entryY=0.5;entryDx=0;entryDy=0;" edge="1" parent="1" target="NeZ7_Q2BanBqK6unCYoK-1">
          <mxGeometry width="50" height="50" relative="1" as="geometry">
            <mxPoint x="30" y="420" as="sourcePoint" />
            <mxPoint x="80" y="370" as="targetPoint" />
          </mxGeometry>
        </mxCell>
        <mxCell id="3toeGC8kUkl0BYj-29N6-15" value="" style="endArrow=classic;html=1;rounded=0;entryX=0;entryY=0.5;entryDx=0;entryDy=0;" edge="1" parent="1" target="oBA19NHuGn7KEeYsnwlE-1">
          <mxGeometry width="50" height="50" relative="1" as="geometry">
            <mxPoint x="30" y="420" as="sourcePoint" />
            <mxPoint x="71" y="185" as="targetPoint" />
          </mxGeometry>
        </mxCell>
        <mxCell id="3toeGC8kUkl0BYj-29N6-16" value="" style="endArrow=classic;html=1;rounded=0;entryX=0;entryY=0.5;entryDx=0;entryDy=0;" edge="1" parent="1" target="138w1NaWASEIeyPZxTQB-1">
          <mxGeometry width="50" height="50" relative="1" as="geometry">
            <mxPoint x="30" y="420" as="sourcePoint" />
            <mxPoint x="71" y="340" as="targetPoint" />
          </mxGeometry>
        </mxCell>
      </root>
    </mxGraphModel>
  </diagram>
  <diagram name="Page-1" id="c0zP0qxTnsiRgH9d7PMY">
    <mxGraphModel dx="392" dy="658" grid="1" gridSize="10" guides="1" tooltips="1" connect="1" arrows="1" fold="1" page="1" pageScale="1" pageWidth="850" pageHeight="1100" math="0" shadow="0">
      <root>
        <mxCell id="0" />
        <mxCell id="1" parent="0" />
        <mxCell id="JPdLuo9PhUIrSg_-qimx-1" value="Cliente" style="shape=umlActor;verticalLabelPosition=bottom;verticalAlign=top;html=1;outlineConnect=0;strokeWidth=2;" vertex="1" parent="1">
          <mxGeometry x="40" y="280" width="30" height="60" as="geometry" />
        </mxCell>
        <mxCell id="JPdLuo9PhUIrSg_-qimx-3" value="website FelixBus" style="swimlane;whiteSpace=wrap;html=1;" vertex="1" parent="1">
          <mxGeometry x="100" y="40" width="470" height="610" as="geometry" />
        </mxCell>
        <mxCell id="JPdLuo9PhUIrSg_-qimx-4" value="Consultar informacoes de viagem" style="ellipse;whiteSpace=wrap;html=1;" vertex="1" parent="JPdLuo9PhUIrSg_-qimx-3">
          <mxGeometry x="60" y="100" width="80" height="60" as="geometry" />
        </mxCell>
        <mxCell id="JPdLuo9PhUIrSg_-qimx-5" value="Visualizar alertas/ informacoes/ promocoes" style="ellipse;whiteSpace=wrap;html=1;" vertex="1" parent="JPdLuo9PhUIrSg_-qimx-3">
          <mxGeometry x="55" y="180" width="90" height="70" as="geometry" />
        </mxCell>
        <mxCell id="JPdLuo9PhUIrSg_-qimx-6" value="Consultar e editar dados pessoais" style="ellipse;whiteSpace=wrap;html=1;" vertex="1" parent="JPdLuo9PhUIrSg_-qimx-3">
          <mxGeometry x="65" y="270" width="80" height="60" as="geometry" />
        </mxCell>
        <mxCell id="JPdLuo9PhUIrSg_-qimx-7" value="Gerir bilhetes" style="ellipse;whiteSpace=wrap;html=1;" vertex="1" parent="JPdLuo9PhUIrSg_-qimx-3">
          <mxGeometry x="65" y="350" width="80" height="60" as="geometry" />
        </mxCell>
        <mxCell id="JPdLuo9PhUIrSg_-qimx-8" value="Gerir carteira" style="ellipse;whiteSpace=wrap;html=1;" vertex="1" parent="JPdLuo9PhUIrSg_-qimx-3">
          <mxGeometry x="65" y="430" width="80" height="60" as="geometry" />
        </mxCell>
        <mxCell id="JPdLuo9PhUIrSg_-qimx-9" value="Autenticar-se" style="ellipse;whiteSpace=wrap;html=1;" vertex="1" parent="JPdLuo9PhUIrSg_-qimx-3">
          <mxGeometry x="245" y="210" width="80" height="60" as="geometry" />
        </mxCell>
        <mxCell id="JPdLuo9PhUIrSg_-qimx-17" value="Encerrar sessao" style="ellipse;whiteSpace=wrap;html=1;" vertex="1" parent="JPdLuo9PhUIrSg_-qimx-3">
          <mxGeometry x="380" y="220" width="70" height="40" as="geometry" />
        </mxCell>
        <mxCell id="JPdLuo9PhUIrSg_-qimx-23" value="" style="endArrow=classic;html=1;rounded=0;dashed=1;exitX=1;exitY=0.5;exitDx=0;exitDy=0;entryX=0;entryY=0;entryDx=0;entryDy=0;" edge="1" parent="JPdLuo9PhUIrSg_-qimx-3" source="JPdLuo9PhUIrSg_-qimx-4" target="JPdLuo9PhUIrSg_-qimx-9">
          <mxGeometry width="50" height="50" relative="1" as="geometry">
            <mxPoint x="200" y="300" as="sourcePoint" />
            <mxPoint x="250" y="250" as="targetPoint" />
          </mxGeometry>
        </mxCell>
        <mxCell id="JPdLuo9PhUIrSg_-qimx-28" value="&lt;font style=&quot;font-size: 8px;&quot;&gt;&amp;lt;&amp;lt;include&amp;gt;&amp;gt;&lt;/font&gt;" style="edgeLabel;html=1;align=center;verticalAlign=middle;resizable=0;points=[];" vertex="1" connectable="0" parent="JPdLuo9PhUIrSg_-qimx-23">
          <mxGeometry x="0.065" y="2" relative="1" as="geometry">
            <mxPoint as="offset" />
          </mxGeometry>
        </mxCell>
        <mxCell id="JPdLuo9PhUIrSg_-qimx-24" value="" style="endArrow=classic;html=1;rounded=0;dashed=1;exitX=1;exitY=0.5;exitDx=0;exitDy=0;entryX=0;entryY=0.5;entryDx=0;entryDy=0;" edge="1" parent="JPdLuo9PhUIrSg_-qimx-3" source="JPdLuo9PhUIrSg_-qimx-5" target="JPdLuo9PhUIrSg_-qimx-9">
          <mxGeometry width="50" height="50" relative="1" as="geometry">
            <mxPoint x="150" y="96" as="sourcePoint" />
            <mxPoint x="266" y="255" as="targetPoint" />
          </mxGeometry>
        </mxCell>
        <mxCell id="JPdLuo9PhUIrSg_-qimx-29" value="&lt;font style=&quot;font-size: 8px;&quot;&gt;&amp;lt;&amp;lt;include&amp;gt;&amp;gt;&lt;/font&gt;" style="edgeLabel;html=1;align=center;verticalAlign=middle;resizable=0;points=[];" vertex="1" connectable="0" parent="JPdLuo9PhUIrSg_-qimx-24">
          <mxGeometry x="-0.2075" y="-2" relative="1" as="geometry">
            <mxPoint as="offset" />
          </mxGeometry>
        </mxCell>
        <mxCell id="JPdLuo9PhUIrSg_-qimx-25" value="" style="endArrow=classic;html=1;rounded=0;dashed=1;exitX=1;exitY=0.5;exitDx=0;exitDy=0;entryX=0;entryY=0.5;entryDx=0;entryDy=0;" edge="1" parent="JPdLuo9PhUIrSg_-qimx-3" source="JPdLuo9PhUIrSg_-qimx-6" target="JPdLuo9PhUIrSg_-qimx-9">
          <mxGeometry width="50" height="50" relative="1" as="geometry">
            <mxPoint x="155" y="155" as="sourcePoint" />
            <mxPoint x="255" y="260" as="targetPoint" />
          </mxGeometry>
        </mxCell>
        <mxCell id="JPdLuo9PhUIrSg_-qimx-30" value="&lt;font style=&quot;font-size: 8px;&quot;&gt;&amp;lt;&amp;lt;include&amp;gt;&amp;gt;&lt;/font&gt;" style="edgeLabel;html=1;align=center;verticalAlign=middle;resizable=0;points=[];" vertex="1" connectable="0" parent="JPdLuo9PhUIrSg_-qimx-25">
          <mxGeometry x="-0.2254" y="2" relative="1" as="geometry">
            <mxPoint as="offset" />
          </mxGeometry>
        </mxCell>
        <mxCell id="JPdLuo9PhUIrSg_-qimx-26" value="" style="endArrow=classic;html=1;rounded=0;dashed=1;exitX=1;exitY=0.5;exitDx=0;exitDy=0;entryX=0;entryY=0.5;entryDx=0;entryDy=0;fontStyle=1" edge="1" parent="JPdLuo9PhUIrSg_-qimx-3" source="JPdLuo9PhUIrSg_-qimx-7" target="JPdLuo9PhUIrSg_-qimx-9">
          <mxGeometry width="50" height="50" relative="1" as="geometry">
            <mxPoint x="145" y="265" as="sourcePoint" />
            <mxPoint x="250" y="295" as="targetPoint" />
          </mxGeometry>
        </mxCell>
        <mxCell id="JPdLuo9PhUIrSg_-qimx-31" value="&lt;font style=&quot;font-size: 8px;&quot;&gt;&amp;lt;&amp;lt;include&amp;gt;&amp;gt;&lt;/font&gt;" style="edgeLabel;html=1;align=center;verticalAlign=middle;resizable=0;points=[];" vertex="1" connectable="0" parent="JPdLuo9PhUIrSg_-qimx-26">
          <mxGeometry x="-0.3176" y="2" relative="1" as="geometry">
            <mxPoint as="offset" />
          </mxGeometry>
        </mxCell>
        <mxCell id="JPdLuo9PhUIrSg_-qimx-27" value="" style="endArrow=classic;html=1;rounded=0;dashed=1;exitX=1;exitY=0.5;exitDx=0;exitDy=0;entryX=0;entryY=1;entryDx=0;entryDy=0;fontStyle=1" edge="1" parent="JPdLuo9PhUIrSg_-qimx-3" source="JPdLuo9PhUIrSg_-qimx-8" target="JPdLuo9PhUIrSg_-qimx-9">
          <mxGeometry width="50" height="50" relative="1" as="geometry">
            <mxPoint x="150" y="290" as="sourcePoint" />
            <mxPoint x="266" y="271" as="targetPoint" />
          </mxGeometry>
        </mxCell>
        <mxCell id="JPdLuo9PhUIrSg_-qimx-32" value="&lt;font style=&quot;font-size: 8px;&quot;&gt;&amp;lt;&amp;lt;include&amp;gt;&amp;gt;&lt;/font&gt;" style="edgeLabel;html=1;align=center;verticalAlign=middle;resizable=0;points=[];" vertex="1" connectable="0" parent="JPdLuo9PhUIrSg_-qimx-27">
          <mxGeometry x="0.0441" y="1" relative="1" as="geometry">
            <mxPoint as="offset" />
          </mxGeometry>
        </mxCell>
        <mxCell id="JPdLuo9PhUIrSg_-qimx-33" value="" style="endArrow=classic;html=1;rounded=0;exitX=1;exitY=0.5;exitDx=0;exitDy=0;entryX=0;entryY=0.5;entryDx=0;entryDy=0;dashed=1;" edge="1" parent="JPdLuo9PhUIrSg_-qimx-3" source="JPdLuo9PhUIrSg_-qimx-9" target="JPdLuo9PhUIrSg_-qimx-17">
          <mxGeometry width="50" height="50" relative="1" as="geometry">
            <mxPoint x="320" y="350" as="sourcePoint" />
            <mxPoint x="370" y="300" as="targetPoint" />
          </mxGeometry>
        </mxCell>
        <mxCell id="JPdLuo9PhUIrSg_-qimx-34" value="&amp;lt;&amp;lt;extend&amp;gt;&amp;gt;" style="edgeLabel;html=1;align=center;verticalAlign=middle;resizable=0;points=[];" vertex="1" connectable="0" parent="JPdLuo9PhUIrSg_-qimx-33">
          <mxGeometry x="0.0258" y="2" relative="1" as="geometry">
            <mxPoint y="22" as="offset" />
          </mxGeometry>
        </mxCell>
        <mxCell id="z9cZxc0zxAFtwvczOgAe-1" value="Consultar rotas" style="ellipse;whiteSpace=wrap;html=1;" vertex="1" parent="JPdLuo9PhUIrSg_-qimx-3">
          <mxGeometry x="200" y="30" width="70" height="50" as="geometry" />
        </mxCell>
        <mxCell id="z9cZxc0zxAFtwvczOgAe-2" value="Consultar horarios" style="ellipse;whiteSpace=wrap;html=1;" vertex="1" parent="JPdLuo9PhUIrSg_-qimx-3">
          <mxGeometry x="90" y="30" width="70" height="50" as="geometry" />
        </mxCell>
        <mxCell id="z9cZxc0zxAFtwvczOgAe-3" value="Consultar precos" style="ellipse;whiteSpace=wrap;html=1;" vertex="1" parent="JPdLuo9PhUIrSg_-qimx-3">
          <mxGeometry x="200" y="100" width="70" height="50" as="geometry" />
        </mxCell>
        <mxCell id="z9cZxc0zxAFtwvczOgAe-5" value="" style="endArrow=classic;html=1;rounded=0;entryX=0.5;entryY=1;entryDx=0;entryDy=0;exitX=0.5;exitY=0;exitDx=0;exitDy=0;dashed=1;" edge="1" parent="JPdLuo9PhUIrSg_-qimx-3" source="JPdLuo9PhUIrSg_-qimx-4" target="z9cZxc0zxAFtwvczOgAe-2">
          <mxGeometry width="50" height="50" relative="1" as="geometry">
            <mxPoint x="40" y="110" as="sourcePoint" />
            <mxPoint x="90" y="60" as="targetPoint" />
          </mxGeometry>
        </mxCell>
        <mxCell id="z9cZxc0zxAFtwvczOgAe-6" value="&lt;font style=&quot;font-size: 8px;&quot;&gt;&amp;lt;&amp;lt;extend&amp;gt;&amp;gt;&lt;/font&gt;" style="edgeLabel;html=1;align=center;verticalAlign=middle;resizable=0;points=[];" vertex="1" connectable="0" parent="z9cZxc0zxAFtwvczOgAe-5">
          <mxGeometry x="-0.1975" y="2" relative="1" as="geometry">
            <mxPoint x="-19" as="offset" />
          </mxGeometry>
        </mxCell>
        <mxCell id="z9cZxc0zxAFtwvczOgAe-7" value="" style="endArrow=classic;html=1;rounded=0;entryX=0;entryY=0.5;entryDx=0;entryDy=0;exitX=1;exitY=0;exitDx=0;exitDy=0;dashed=1;" edge="1" parent="JPdLuo9PhUIrSg_-qimx-3" source="JPdLuo9PhUIrSg_-qimx-4" target="z9cZxc0zxAFtwvczOgAe-1">
          <mxGeometry width="50" height="50" relative="1" as="geometry">
            <mxPoint x="110" y="210" as="sourcePoint" />
            <mxPoint x="160" y="160" as="targetPoint" />
          </mxGeometry>
        </mxCell>
        <mxCell id="z9cZxc0zxAFtwvczOgAe-8" value="&lt;font style=&quot;font-size: 8px;&quot;&gt;&amp;lt;&amp;lt;extend&amp;gt;&amp;gt;&lt;/font&gt;" style="edgeLabel;html=1;align=center;verticalAlign=middle;resizable=0;points=[];" vertex="1" connectable="0" parent="z9cZxc0zxAFtwvczOgAe-7">
          <mxGeometry x="-0.0704" y="1" relative="1" as="geometry">
            <mxPoint as="offset" />
          </mxGeometry>
        </mxCell>
        <mxCell id="z9cZxc0zxAFtwvczOgAe-9" value="" style="endArrow=classic;html=1;rounded=0;entryX=0;entryY=0.5;entryDx=0;entryDy=0;exitX=1;exitY=0.5;exitDx=0;exitDy=0;dashed=1;" edge="1" parent="JPdLuo9PhUIrSg_-qimx-3" source="JPdLuo9PhUIrSg_-qimx-4" target="z9cZxc0zxAFtwvczOgAe-3">
          <mxGeometry width="50" height="50" relative="1" as="geometry">
            <mxPoint x="100" y="210" as="sourcePoint" />
            <mxPoint x="150" y="160" as="targetPoint" />
          </mxGeometry>
        </mxCell>
        <mxCell id="z9cZxc0zxAFtwvczOgAe-10" value="&lt;font style=&quot;font-size: 8px;&quot;&gt;&amp;lt;&amp;lt;extend&amp;gt;&amp;gt;&lt;/font&gt;" style="edgeLabel;html=1;align=center;verticalAlign=middle;resizable=0;points=[];" vertex="1" connectable="0" parent="z9cZxc0zxAFtwvczOgAe-9">
          <mxGeometry x="-0.1731" y="2" relative="1" as="geometry">
            <mxPoint y="-10" as="offset" />
          </mxGeometry>
        </mxCell>
        <mxCell id="azEhdMdE8wlUdrdvgimi-1" value="Levantar saldo" style="ellipse;whiteSpace=wrap;html=1;" vertex="1" parent="JPdLuo9PhUIrSg_-qimx-3">
          <mxGeometry x="160" y="495" width="60" height="45" as="geometry" />
        </mxCell>
        <mxCell id="azEhdMdE8wlUdrdvgimi-32" value="Adiconar saldo" style="ellipse;whiteSpace=wrap;html=1;" vertex="1" parent="JPdLuo9PhUIrSg_-qimx-3">
          <mxGeometry x="100" y="540" width="60" height="40" as="geometry" />
        </mxCell>
        <mxCell id="azEhdMdE8wlUdrdvgimi-33" value="Comprar bilhete" style="ellipse;whiteSpace=wrap;html=1;" vertex="1" parent="JPdLuo9PhUIrSg_-qimx-3">
          <mxGeometry x="245" y="420" width="60" height="50" as="geometry" />
        </mxCell>
        <mxCell id="azEhdMdE8wlUdrdvgimi-35" value="" style="endArrow=classic;html=1;rounded=0;dashed=1;exitX=1;exitY=0.5;exitDx=0;exitDy=0;entryX=0.5;entryY=0;entryDx=0;entryDy=0;fontStyle=1" edge="1" parent="JPdLuo9PhUIrSg_-qimx-3" source="JPdLuo9PhUIrSg_-qimx-8" target="azEhdMdE8wlUdrdvgimi-1">
          <mxGeometry width="50" height="50" relative="1" as="geometry">
            <mxPoint x="155" y="470" as="sourcePoint" />
            <mxPoint x="267" y="271" as="targetPoint" />
          </mxGeometry>
        </mxCell>
        <mxCell id="azEhdMdE8wlUdrdvgimi-36" value="&lt;font style=&quot;font-size: 8px;&quot;&gt;&amp;lt;&amp;lt;include&amp;gt;&amp;gt;&lt;/font&gt;" style="edgeLabel;html=1;align=center;verticalAlign=middle;resizable=0;points=[];" vertex="1" connectable="0" parent="azEhdMdE8wlUdrdvgimi-35">
          <mxGeometry x="0.0441" y="1" relative="1" as="geometry">
            <mxPoint as="offset" />
          </mxGeometry>
        </mxCell>
        <mxCell id="azEhdMdE8wlUdrdvgimi-37" value="" style="endArrow=classic;html=1;rounded=0;dashed=1;exitX=0.5;exitY=1;exitDx=0;exitDy=0;entryX=0.5;entryY=0;entryDx=0;entryDy=0;fontStyle=1" edge="1" parent="JPdLuo9PhUIrSg_-qimx-3" source="JPdLuo9PhUIrSg_-qimx-8" target="azEhdMdE8wlUdrdvgimi-32">
          <mxGeometry width="50" height="50" relative="1" as="geometry">
            <mxPoint x="111" y="499" as="sourcePoint" />
            <mxPoint x="156" y="527" as="targetPoint" />
          </mxGeometry>
        </mxCell>
        <mxCell id="azEhdMdE8wlUdrdvgimi-38" value="&lt;font style=&quot;font-size: 8px;&quot;&gt;&amp;lt;&amp;lt;include&amp;gt;&amp;gt;&lt;/font&gt;" style="edgeLabel;html=1;align=center;verticalAlign=middle;resizable=0;points=[];" vertex="1" connectable="0" parent="azEhdMdE8wlUdrdvgimi-37">
          <mxGeometry x="0.0441" y="1" relative="1" as="geometry">
            <mxPoint as="offset" />
          </mxGeometry>
        </mxCell>
        <mxCell id="azEhdMdE8wlUdrdvgimi-40" value="" style="endArrow=classic;html=1;rounded=0;dashed=1;exitX=1;exitY=0.5;exitDx=0;exitDy=0;entryX=0;entryY=0.5;entryDx=0;entryDy=0;fontStyle=1" edge="1" parent="JPdLuo9PhUIrSg_-qimx-3" source="JPdLuo9PhUIrSg_-qimx-7" target="azEhdMdE8wlUdrdvgimi-33">
          <mxGeometry width="50" height="50" relative="1" as="geometry">
            <mxPoint x="155" y="470" as="sourcePoint" />
            <mxPoint x="267" y="271" as="targetPoint" />
          </mxGeometry>
        </mxCell>
        <mxCell id="azEhdMdE8wlUdrdvgimi-41" value="&lt;font style=&quot;font-size: 8px;&quot;&gt;&amp;lt;&amp;lt;include&amp;gt;&amp;gt;&lt;/font&gt;" style="edgeLabel;html=1;align=center;verticalAlign=middle;resizable=0;points=[];" vertex="1" connectable="0" parent="azEhdMdE8wlUdrdvgimi-40">
          <mxGeometry x="0.0441" y="1" relative="1" as="geometry">
            <mxPoint as="offset" />
          </mxGeometry>
        </mxCell>
        <mxCell id="azEhdMdE8wlUdrdvgimi-42" value="Consultar bilhetes comprados" style="ellipse;whiteSpace=wrap;html=1;" vertex="1" parent="JPdLuo9PhUIrSg_-qimx-3">
          <mxGeometry x="230" y="355" width="90" height="55" as="geometry" />
        </mxCell>
        <mxCell id="azEhdMdE8wlUdrdvgimi-43" value="" style="endArrow=classic;html=1;rounded=0;dashed=1;exitX=1;exitY=0.5;exitDx=0;exitDy=0;entryX=0;entryY=0.5;entryDx=0;entryDy=0;fontStyle=1" edge="1" parent="JPdLuo9PhUIrSg_-qimx-3" source="JPdLuo9PhUIrSg_-qimx-7" target="azEhdMdE8wlUdrdvgimi-42">
          <mxGeometry width="50" height="50" relative="1" as="geometry">
            <mxPoint x="155" y="351" as="sourcePoint" />
            <mxPoint x="240" y="436" as="targetPoint" />
          </mxGeometry>
        </mxCell>
        <mxCell id="azEhdMdE8wlUdrdvgimi-44" value="&lt;font style=&quot;font-size: 8px;&quot;&gt;&amp;lt;&amp;lt;include&amp;gt;&amp;gt;&lt;/font&gt;" style="edgeLabel;html=1;align=center;verticalAlign=middle;resizable=0;points=[];" vertex="1" connectable="0" parent="azEhdMdE8wlUdrdvgimi-43">
          <mxGeometry x="0.0441" y="1" relative="1" as="geometry">
            <mxPoint as="offset" />
          </mxGeometry>
        </mxCell>
        <mxCell id="azEhdMdE8wlUdrdvgimi-45" value="Consultar saldo" style="ellipse;whiteSpace=wrap;html=1;" vertex="1" parent="JPdLuo9PhUIrSg_-qimx-3">
          <mxGeometry x="30" y="540" width="60" height="40" as="geometry" />
        </mxCell>
        <mxCell id="azEhdMdE8wlUdrdvgimi-46" value="" style="endArrow=classic;html=1;rounded=0;dashed=1;exitX=0;exitY=1;exitDx=0;exitDy=0;entryX=0.5;entryY=0;entryDx=0;entryDy=0;fontStyle=1" edge="1" parent="JPdLuo9PhUIrSg_-qimx-3" source="JPdLuo9PhUIrSg_-qimx-8" target="azEhdMdE8wlUdrdvgimi-45">
          <mxGeometry width="50" height="50" relative="1" as="geometry">
            <mxPoint x="79" y="500" as="sourcePoint" />
            <mxPoint x="104" y="550" as="targetPoint" />
          </mxGeometry>
        </mxCell>
        <mxCell id="azEhdMdE8wlUdrdvgimi-47" value="&lt;font style=&quot;font-size: 8px;&quot;&gt;&amp;lt;&amp;lt;include&amp;gt;&amp;gt;&lt;/font&gt;" style="edgeLabel;html=1;align=center;verticalAlign=middle;resizable=0;points=[];" vertex="1" connectable="0" parent="azEhdMdE8wlUdrdvgimi-46">
          <mxGeometry x="0.0441" y="1" relative="1" as="geometry">
            <mxPoint as="offset" />
          </mxGeometry>
        </mxCell>
        <mxCell id="JPdLuo9PhUIrSg_-qimx-18" value="" style="endArrow=classic;html=1;rounded=0;entryX=0;entryY=0.5;entryDx=0;entryDy=0;" edge="1" parent="1" target="JPdLuo9PhUIrSg_-qimx-4">
          <mxGeometry width="50" height="50" relative="1" as="geometry">
            <mxPoint x="80" y="320" as="sourcePoint" />
            <mxPoint x="130" y="250" as="targetPoint" />
          </mxGeometry>
        </mxCell>
        <mxCell id="JPdLuo9PhUIrSg_-qimx-19" value="" style="endArrow=classic;html=1;rounded=0;entryX=0;entryY=0.5;entryDx=0;entryDy=0;" edge="1" parent="1" target="JPdLuo9PhUIrSg_-qimx-5">
          <mxGeometry width="50" height="50" relative="1" as="geometry">
            <mxPoint x="80" y="320" as="sourcePoint" />
            <mxPoint x="170" y="160" as="targetPoint" />
          </mxGeometry>
        </mxCell>
        <mxCell id="JPdLuo9PhUIrSg_-qimx-20" value="" style="endArrow=classic;html=1;rounded=0;entryX=0;entryY=0.5;entryDx=0;entryDy=0;" edge="1" parent="1" target="JPdLuo9PhUIrSg_-qimx-6">
          <mxGeometry width="50" height="50" relative="1" as="geometry">
            <mxPoint x="80" y="320" as="sourcePoint" />
            <mxPoint x="165" y="235" as="targetPoint" />
          </mxGeometry>
        </mxCell>
        <mxCell id="JPdLuo9PhUIrSg_-qimx-21" value="" style="endArrow=classic;html=1;rounded=0;entryX=0;entryY=0.5;entryDx=0;entryDy=0;" edge="1" parent="1" target="JPdLuo9PhUIrSg_-qimx-7">
          <mxGeometry width="50" height="50" relative="1" as="geometry">
            <mxPoint x="80" y="320" as="sourcePoint" />
            <mxPoint x="170" y="310" as="targetPoint" />
          </mxGeometry>
        </mxCell>
        <mxCell id="JPdLuo9PhUIrSg_-qimx-22" value="" style="endArrow=classic;html=1;rounded=0;entryX=0;entryY=0.5;entryDx=0;entryDy=0;" edge="1" parent="1" target="JPdLuo9PhUIrSg_-qimx-8">
          <mxGeometry width="50" height="50" relative="1" as="geometry">
            <mxPoint x="80" y="320" as="sourcePoint" />
            <mxPoint x="170" y="380" as="targetPoint" />
          </mxGeometry>
        </mxCell>
      </root>
    </mxGraphModel>
  </diagram>
  <diagram name="Page-2" id="JBD5sRpc4pvnIGOqzieS">
    <mxGraphModel dx="966" dy="563" grid="1" gridSize="10" guides="1" tooltips="1" connect="1" arrows="1" fold="1" page="1" pageScale="1" pageWidth="850" pageHeight="1100" math="0" shadow="0">
      <root>
        <mxCell id="0" />
        <mxCell id="1" parent="0" />
        <mxCell id="amRZjoWjvHXV_V3wDeVR-1" value="FelixBus Website" style="swimlane;whiteSpace=wrap;html=1;" parent="1" vertex="1">
          <mxGeometry x="230" y="220" width="220" height="270" as="geometry" />
        </mxCell>
        <mxCell id="amRZjoWjvHXV_V3wDeVR-2" value="Aceder ao site" style="ellipse;whiteSpace=wrap;html=1;" parent="amRZjoWjvHXV_V3wDeVR-1" vertex="1">
          <mxGeometry x="140" y="215" width="70" height="40" as="geometry" />
        </mxCell>
        <mxCell id="amRZjoWjvHXV_V3wDeVR-3" value="Consultar rotas" style="ellipse;whiteSpace=wrap;html=1;" parent="amRZjoWjvHXV_V3wDeVR-1" vertex="1">
          <mxGeometry x="130" y="30" width="70" height="40" as="geometry" />
        </mxCell>
        <mxCell id="amRZjoWjvHXV_V3wDeVR-4" value="Consultar horarios" style="ellipse;whiteSpace=wrap;html=1;" parent="amRZjoWjvHXV_V3wDeVR-1" vertex="1">
          <mxGeometry x="130" y="80" width="70" height="40" as="geometry" />
        </mxCell>
        <mxCell id="amRZjoWjvHXV_V3wDeVR-5" value="Consultar precos" style="ellipse;whiteSpace=wrap;html=1;" parent="amRZjoWjvHXV_V3wDeVR-1" vertex="1">
          <mxGeometry x="130" y="130" width="70" height="40" as="geometry" />
        </mxCell>
        <mxCell id="amRZjoWjvHXV_V3wDeVR-6" value="visualizar alertas/&lt;div&gt;informacoes/&lt;/div&gt;&lt;div&gt;promocoes&lt;/div&gt;" style="ellipse;whiteSpace=wrap;html=1;" parent="amRZjoWjvHXV_V3wDeVR-1" vertex="1">
          <mxGeometry x="10" y="200" width="105" height="70" as="geometry" />
        </mxCell>
        <mxCell id="amRZjoWjvHXV_V3wDeVR-7" value="consultar informacoes de viagem" style="ellipse;whiteSpace=wrap;html=1;" parent="amRZjoWjvHXV_V3wDeVR-1" vertex="1">
          <mxGeometry x="10" y="70" width="80" height="60" as="geometry" />
        </mxCell>
        <mxCell id="amRZjoWjvHXV_V3wDeVR-8" value="" style="endArrow=classic;html=1;rounded=0;entryX=0;entryY=0.5;entryDx=0;entryDy=0;" parent="amRZjoWjvHXV_V3wDeVR-1" target="amRZjoWjvHXV_V3wDeVR-6" edge="1">
          <mxGeometry width="50" height="50" relative="1" as="geometry">
            <mxPoint x="-40" y="150" as="sourcePoint" />
            <mxPoint x="42.5" y="150" as="targetPoint" />
          </mxGeometry>
        </mxCell>
        <mxCell id="amRZjoWjvHXV_V3wDeVR-9" value="" style="endArrow=classic;html=1;rounded=0;entryX=1;entryY=0;entryDx=0;entryDy=0;exitX=0;exitY=0.5;exitDx=0;exitDy=0;" parent="amRZjoWjvHXV_V3wDeVR-1" source="amRZjoWjvHXV_V3wDeVR-3" target="amRZjoWjvHXV_V3wDeVR-7" edge="1">
          <mxGeometry width="50" height="50" relative="1" as="geometry">
            <mxPoint x="160" y="140" as="sourcePoint" />
            <mxPoint x="180" y="60" as="targetPoint" />
          </mxGeometry>
        </mxCell>
        <mxCell id="amRZjoWjvHXV_V3wDeVR-10" value="&lt;font style=&quot;font-size: 8px;&quot;&gt;&amp;lt;&amp;lt;extend&amp;gt;&amp;gt;&lt;/font&gt;" style="edgeLabel;html=1;align=center;verticalAlign=middle;resizable=0;points=[];" parent="amRZjoWjvHXV_V3wDeVR-9" vertex="1" connectable="0">
          <mxGeometry x="-0.2584" relative="1" as="geometry">
            <mxPoint as="offset" />
          </mxGeometry>
        </mxCell>
        <mxCell id="amRZjoWjvHXV_V3wDeVR-11" value="" style="endArrow=classic;html=1;rounded=0;entryX=1;entryY=0.5;entryDx=0;entryDy=0;exitX=0;exitY=0.5;exitDx=0;exitDy=0;" parent="amRZjoWjvHXV_V3wDeVR-1" source="amRZjoWjvHXV_V3wDeVR-4" target="amRZjoWjvHXV_V3wDeVR-7" edge="1">
          <mxGeometry width="50" height="50" relative="1" as="geometry">
            <mxPoint x="180" y="70" as="sourcePoint" />
            <mxPoint x="121" y="99" as="targetPoint" />
          </mxGeometry>
        </mxCell>
        <mxCell id="amRZjoWjvHXV_V3wDeVR-12" value="&lt;font style=&quot;font-size: 8px;&quot;&gt;&amp;lt;&amp;lt;extend&amp;gt;&amp;gt;&lt;/font&gt;" style="edgeLabel;html=1;align=center;verticalAlign=middle;resizable=0;points=[];" parent="amRZjoWjvHXV_V3wDeVR-11" vertex="1" connectable="0">
          <mxGeometry x="-0.2165" y="1" relative="1" as="geometry">
            <mxPoint x="1" y="-11" as="offset" />
          </mxGeometry>
        </mxCell>
        <mxCell id="amRZjoWjvHXV_V3wDeVR-13" value="" style="endArrow=classic;html=1;rounded=0;entryX=1;entryY=1;entryDx=0;entryDy=0;exitX=0;exitY=0.5;exitDx=0;exitDy=0;" parent="amRZjoWjvHXV_V3wDeVR-1" source="amRZjoWjvHXV_V3wDeVR-5" target="amRZjoWjvHXV_V3wDeVR-7" edge="1">
          <mxGeometry width="50" height="50" relative="1" as="geometry">
            <mxPoint x="157" y="150" as="sourcePoint" />
            <mxPoint x="110" y="150" as="targetPoint" />
          </mxGeometry>
        </mxCell>
        <mxCell id="amRZjoWjvHXV_V3wDeVR-14" value="&lt;font style=&quot;font-size: 8px;&quot;&gt;&amp;lt;&amp;lt;extend&amp;gt;&amp;gt;&lt;/font&gt;" style="edgeLabel;html=1;align=center;verticalAlign=middle;resizable=0;points=[];" parent="amRZjoWjvHXV_V3wDeVR-13" vertex="1" connectable="0">
          <mxGeometry x="-0.2365" y="-1" relative="1" as="geometry">
            <mxPoint as="offset" />
          </mxGeometry>
        </mxCell>
        <mxCell id="amRZjoWjvHXV_V3wDeVR-15" value="" style="endArrow=classic;html=1;rounded=0;dashed=1;exitX=0;exitY=0.5;exitDx=0;exitDy=0;entryX=1;entryY=0.5;entryDx=0;entryDy=0;" parent="amRZjoWjvHXV_V3wDeVR-1" source="amRZjoWjvHXV_V3wDeVR-2" target="amRZjoWjvHXV_V3wDeVR-6" edge="1">
          <mxGeometry width="50" height="50" relative="1" as="geometry">
            <mxPoint x="135" y="300" as="sourcePoint" />
            <mxPoint x="185" y="250" as="targetPoint" />
          </mxGeometry>
        </mxCell>
        <mxCell id="amRZjoWjvHXV_V3wDeVR-16" value="&lt;font style=&quot;font-size: 8px;&quot;&gt;&amp;lt;&amp;lt;include&amp;gt;&amp;gt;&lt;/font&gt;" style="edgeLabel;html=1;align=center;verticalAlign=middle;resizable=0;points=[];" parent="amRZjoWjvHXV_V3wDeVR-15" vertex="1" connectable="0">
          <mxGeometry x="-0.2177" y="-3" relative="1" as="geometry">
            <mxPoint y="23" as="offset" />
          </mxGeometry>
        </mxCell>
        <mxCell id="amRZjoWjvHXV_V3wDeVR-17" value="" style="endArrow=classic;html=1;rounded=0;dashed=1;entryX=0.5;entryY=1;entryDx=0;entryDy=0;exitX=0;exitY=0;exitDx=0;exitDy=0;" parent="amRZjoWjvHXV_V3wDeVR-1" source="amRZjoWjvHXV_V3wDeVR-2" target="amRZjoWjvHXV_V3wDeVR-7" edge="1">
          <mxGeometry width="50" height="50" relative="1" as="geometry">
            <mxPoint x="170" y="220" as="sourcePoint" />
            <mxPoint x="135" y="200" as="targetPoint" />
          </mxGeometry>
        </mxCell>
        <mxCell id="amRZjoWjvHXV_V3wDeVR-18" value="&lt;font style=&quot;font-size: 8px;&quot;&gt;&amp;lt;&amp;lt;include&amp;gt;&amp;gt;&lt;/font&gt;" style="edgeLabel;html=1;align=center;verticalAlign=middle;resizable=0;points=[];" parent="amRZjoWjvHXV_V3wDeVR-17" vertex="1" connectable="0">
          <mxGeometry x="-0.185" y="-1" relative="1" as="geometry">
            <mxPoint as="offset" />
          </mxGeometry>
        </mxCell>
        <mxCell id="amRZjoWjvHXV_V3wDeVR-19" value="Visitante" style="shape=umlActor;verticalLabelPosition=bottom;verticalAlign=top;html=1;outlineConnect=0;strokeWidth=3;" parent="1" vertex="1">
          <mxGeometry x="160" y="340" width="30" height="60" as="geometry" />
        </mxCell>
        <mxCell id="amRZjoWjvHXV_V3wDeVR-20" value="" style="endArrow=classic;html=1;rounded=0;entryX=0;entryY=0.5;entryDx=0;entryDy=0;" parent="1" target="amRZjoWjvHXV_V3wDeVR-7" edge="1">
          <mxGeometry width="50" height="50" relative="1" as="geometry">
            <mxPoint x="190" y="370" as="sourcePoint" />
            <mxPoint x="268" y="280" as="targetPoint" />
          </mxGeometry>
        </mxCell>
      </root>
    </mxGraphModel>
  </diagram>
</mxfile>
